<svg xmlns="http://www.w3.org/2000/svg" viewBox="0 0 64 64" width="64" height="64">
  <defs>
    <linearGradient id="petal" x1="0.2" y1="0" x2="0.8" y2="1">
      <stop offset="0" stop-color="#D4A59E" />
      <stop offset="1" stop-color="#B9786F" />
    </linearGradient>
  </defs>
  <g transform="translate(32 36) scale(3.35)">
    <path
      d="M0 5 Q 0.4 9, 0 13"
      fill="none"
      stroke="#8A9275"
      stroke-width="1.1"
      stroke-linecap="round"
      opacity="0.75"
    />
    <g transform="translate(0 -1.5)">
      <path
        transform="rotate(0)"
        d="M0 0 C 2.8 -7.5, 8 -8.5, 9 -1.2 C 8 4.5, 2.8 5.5, 0 0"
        fill="url(#petal)"
        stroke="#8F514C"
        stroke-width="0.4"
        stroke-opacity="0.45"
      />
      <path
        transform="rotate(60)"
        d="M0 0 C 2.8 -7.5, 8 -8.5, 9 -1.2 C 8 4.5, 2.8 5.5, 0 0"
        fill="url(#petal)"
        stroke="#8F514C"
        stroke-width="0.4"
        stroke-opacity="0.45"
      />
      <path
        transform="rotate(120)"
        d="M0 0 C 2.8 -7.5, 8 -8.5, 9 -1.2 C 8 4.5, 2.8 5.5, 0 0"
        fill="url(#petal)"
        stroke="#8F514C"
        stroke-width="0.4"
        stroke-opacity="0.45"
      />
      <path
        transform="rotate(180)"
        d="M0 0 C 2.8 -7.5, 8 -8.5, 9 -1.2 C 8 4.5, 2.8 5.5, 0 0"
        fill="url(#petal)"
        stroke="#8F514C"
        stroke-width="0.4"
        stroke-opacity="0.45"
      />
      <path
        transform="rotate(240)"
        d="M0 0 C 2.8 -7.5, 8 -8.5, 9 -1.2 C 8 4.5, 2.8 5.5, 0 0"
        fill="url(#petal)"
        stroke="#8F514C"
        stroke-width="0.4"
        stroke-opacity="0.45"
      />
      <path
        transform="rotate(300)"
        d="M0 0 C 2.8 -7.5, 8 -8.5, 9 -1.2 C 8 4.5, 2.8 5.5, 0 0"
        fill="url(#petal)"
        stroke="#8F514C"
        stroke-width="0.4"
        stroke-opacity="0.45"
      />
      <circle r="2.4" fill="#8F514C" />
    </g>
  </g>
</svg>
